<svg width="123" height="30" viewBox="0 0 123 30" fill="none" xmlns="http://www.w3.org/2000/svg">
<path d="M16.0636 24.2409C15.358 24.2409 14.6555 24.195 13.9569 24.1024C13.2575 24.0098 12.5667 23.8721 11.886 23.6885C11.2045 23.5049 10.5386 23.2778 9.88742 23.0063C9.23628 22.7347 8.60536 22.422 7.99545 22.068C7.38554 21.7133 6.8013 21.3204 6.24274 20.8895C5.68495 20.4585 5.15672 19.9925 4.66039 19.4915C4.16328 18.9905 3.70118 18.4591 3.27487 17.8975C2.84777 17.3366 2.45958 16.7492 2.11028 16.1362C1.7602 15.5232 1.45291 14.8907 1.18685 14.2372C0.920797 13.5837 0.698304 12.9155 0.520154 12.2332C0.342004 11.551 0.209752 10.8594 0.122622 10.1592C0.0354921 9.45907 -0.00496127 8.75658 0.000484415 8.05098C0.0059301 7.34538 0.0572745 6.64367 0.155296 5.94508C0.253317 5.24648 0.397238 4.55722 0.585501 3.87729C0.774542 3.19814 1.00715 2.53378 1.28332 1.88419C1.56027 1.23538 1.87767 0.607577 2.23708 0L7.76752 3.27127C7.55202 3.63535 7.36143 4.01188 7.19572 4.40163C7.03002 4.7906 6.88999 5.18969 6.77719 5.59733C6.66361 6.00498 6.57726 6.41885 6.51891 6.83816C6.45979 7.2567 6.42867 7.67835 6.42556 8.10155C6.42244 8.52475 6.44656 8.9464 6.49868 9.36649C6.55081 9.78658 6.63093 10.2012 6.73751 10.6112C6.84409 11.0204 6.9779 11.4211 7.13738 11.8131C7.29686 12.2052 7.48201 12.5849 7.69128 12.9528C7.90132 13.32 8.13393 13.6724 8.38987 14.0093C8.6466 14.3469 8.92355 14.6651 9.2215 14.9654C9.51945 15.2664 9.83608 15.5457 10.1714 15.8048C10.5059 16.0631 10.8567 16.2988 11.2224 16.5119C11.5888 16.7243 11.9669 16.9118 12.3574 17.0744C12.7487 17.2378 13.1486 17.3739 13.557 17.4836C13.9654 17.5941 14.3801 17.6765 14.7994 17.7325C15.2187 17.7878 15.6403 17.8158 16.0636 17.8158V24.2409Z" fill="white"/>
<path d="M9.25653 5.75928C9.96135 5.75928 10.6638 5.80518 11.3632 5.89775C12.0626 5.99033 12.7534 6.1288 13.4341 6.31162C14.1156 6.49522 14.7815 6.72315 15.4327 6.99388C16.0838 7.26538 16.7147 7.57812 17.3246 7.93209C17.9345 8.28683 18.5188 8.67969 19.0773 9.11068C19.6351 9.54166 20.1626 10.0084 20.6597 10.5086C21.1568 11.0096 21.6181 11.541 22.0452 12.1027C22.4723 12.6643 22.8605 13.2509 23.2098 13.8639C23.5591 14.477 23.8672 15.1102 24.1332 15.7629C24.3993 16.4164 24.6218 17.0846 24.7999 17.7669C24.9781 18.4499 25.1103 19.1408 25.1975 19.8409C25.2846 20.5411 25.325 21.2435 25.3196 21.9491C25.3141 22.6547 25.262 23.3565 25.164 24.055C25.066 24.7536 24.9228 25.4429 24.7338 26.1228C24.5455 26.8028 24.3129 27.4671 24.036 28.1159C23.7598 28.7647 23.4424 29.3933 23.083 30.0001L17.5526 26.7296C17.7681 26.3648 17.9587 25.9883 18.1244 25.5985C18.2901 25.2095 18.4293 24.8104 18.5429 24.4028C18.6565 23.9951 18.742 23.5813 18.8012 23.162C18.8603 22.7434 18.8906 22.3218 18.8945 21.8986C18.8976 21.4754 18.8735 21.0537 18.8206 20.6336C18.7685 20.2135 18.6891 19.7989 18.5826 19.3897C18.4752 18.9797 18.3422 18.5791 18.1827 18.187C18.0224 17.7949 17.8381 17.4153 17.6288 17.0473C17.4188 16.6801 17.1862 16.3277 16.9294 15.9908C16.6735 15.654 16.3965 15.335 16.0986 15.0347C15.7998 14.7337 15.484 14.4544 15.1487 14.1953C14.8134 13.9371 14.4633 13.7013 14.0969 13.489C13.7313 13.2758 13.3532 13.0883 12.9619 12.9257C12.5714 12.7631 12.1715 12.6262 11.7631 12.5165C11.3547 12.4061 10.94 12.3236 10.5207 12.2676C10.1006 12.2124 9.67973 12.1843 9.25653 12.1843V5.75928Z" fill="white"/>
<rect opacity="0.33" x="9.18811" y="7.53906" width="6.8322" height="14.6068" fill="white"/>
<path d="M57.9251 23L57.9026 12.547L52.7212 21.1978H51.4145L46.2331 12.6822V23H43.4396V7.2304H45.8501L52.1129 17.6834L58.2631 7.2304H60.6736L60.6961 23H57.9251ZM76.3323 10.97V23H73.6514V21.4681C73.2009 22.0088 72.6377 22.4293 71.9618 22.7297C71.286 23.015 70.5576 23.1577 69.7766 23.1577C68.1696 23.1577 66.9005 22.7146 65.9694 21.8285C65.0533 20.9274 64.5952 19.5983 64.5952 17.8411V10.97H67.4112V17.4581C67.4112 18.5395 67.6515 19.3505 68.1321 19.8911C68.6277 20.4168 69.3261 20.6796 70.2272 20.6796C71.2334 20.6796 72.0294 20.3717 72.6152 19.756C73.2159 19.1252 73.5163 18.2241 73.5163 17.0526V10.97H76.3323ZM89.4135 20.7472V23H79.0281V21.2203L85.6288 13.2228H79.1632V10.97H89.2332V12.7498L82.61 20.7472H89.4135ZM101.403 20.7472V23H91.0181V21.2203L97.6188 13.2228H91.1532V10.97H101.223V12.7498L94.6 20.7472H101.403ZM103.999 6.28422H106.815V23H103.999V6.28422ZM121.82 17.0526C121.82 17.2479 121.805 17.5257 121.775 17.8861H112.336C112.501 18.7722 112.929 19.4781 113.62 20.0038C114.326 20.5144 115.197 20.7697 116.233 20.7697C117.555 20.7697 118.644 20.3342 119.5 19.4631L121.009 21.1978C120.469 21.8436 119.785 22.3317 118.959 22.6621C118.133 22.9925 117.202 23.1577 116.166 23.1577C114.844 23.1577 113.68 22.8949 112.674 22.3692C111.668 21.8436 110.887 21.1152 110.331 20.184C109.79 19.2378 109.52 18.1715 109.52 16.985C109.52 15.8136 109.783 14.7623 110.309 13.8311C110.849 12.8849 111.593 12.149 112.539 11.6234C113.485 11.0977 114.551 10.8349 115.738 10.8349C116.909 10.8349 117.953 11.0977 118.869 11.6234C119.8 12.134 120.521 12.8624 121.032 13.8086C121.558 14.7397 121.82 15.8211 121.82 17.0526ZM115.738 13.0877C114.837 13.0877 114.071 13.358 113.44 13.8987C112.824 14.4243 112.449 15.1302 112.314 16.0163H119.14C119.019 15.1452 118.651 14.4394 118.036 13.8987C117.42 13.358 116.654 13.0877 115.738 13.0877Z" fill="white"/>
</svg>
