<svg width="35" height="35" viewBox="0 0 35 35" fill="none" xmlns="http://www.w3.org/2000/svg">
<path d="M0 25.843V9.15698C0.0063194 6.73034 0.973099 4.4049 2.689 2.689C4.4049 0.973099 6.73034 0.0063194 9.15698 0L25.843 0C28.2697 0.0063194 30.5951 0.973099 32.311 2.689C34.0269 4.4049 34.9937 6.73034 35 9.15698V25.843C34.9937 28.2697 34.0269 30.5951 32.311 32.311C30.5951 34.0269 28.2697 34.9937 25.843 35H20.2411L17.2965 34.2818L14.7709 35H9.15698C6.73034 34.9937 4.4049 34.0269 2.689 32.311C0.973099 30.5951 0.0063194 28.2697 0 25.843H0Z" fill="url(#paint0_linear_315_136)"/>
<path d="M24.3109 23.1376L25.1368 18.0744H20.2411V14.7946C20.2073 14.4173 20.2588 14.0371 20.3918 13.6824C20.5248 13.3276 20.7359 13.0073 21.0095 12.7452C21.2831 12.4831 21.6121 12.286 21.9723 12.1683C22.3324 12.0506 22.7144 12.0155 23.0899 12.0655H25.2924V7.75631C23.9981 7.54363 22.6898 7.4276 21.3782 7.40918C17.3803 7.40918 14.7709 9.80316 14.7709 14.2201V18.0744H10.3181V23.1376H14.7709V34.9998H20.2411V23.1376H24.3109Z" fill="white"/>
<defs>
<linearGradient id="paint0_linear_315_136" x1="32.3068" y1="2.68126" x2="2.68126" y2="32.3068" gradientUnits="userSpaceOnUse">
<stop stop-color="#4676ED"/>
<stop offset="0.19" stop-color="#436DE4"/>
<stop offset="0.49" stop-color="#3C55CD"/>
<stop offset="0.87" stop-color="#302EA8"/>
<stop offset="1" stop-color="#2B1E99"/>
</linearGradient>
</defs>
</svg>
