<svg width="35" height="35" viewBox="0 0 35 35" fill="none" xmlns="http://www.w3.org/2000/svg">
<path d="M35 25.843V9.15698C35 4.09972 30.9003 0 25.843 0L9.15697 0C4.09972 0 0 4.09972 0 9.15698V25.843C0 30.9003 4.09972 35 9.15697 35H25.843C30.9003 35 35 30.9003 35 25.843Z" fill="url(#paint0_linear_315_139)"/>
<path d="M22.9343 10.9048C22.6976 10.9048 22.4661 10.975 22.2693 11.1065C22.0724 11.238 21.919 11.425 21.8284 11.6437C21.7378 11.8624 21.7141 12.1031 21.7603 12.3353C21.8065 12.5675 21.9205 12.7808 22.0879 12.9482C22.2553 13.1156 22.4686 13.2296 22.7008 13.2758C22.933 13.322 23.1736 13.2982 23.3924 13.2077C23.6111 13.1171 23.798 12.9636 23.9296 12.7668C24.0611 12.5699 24.1313 12.3385 24.1313 12.1018C24.1313 11.7843 24.0052 11.4799 23.7807 11.2554C23.5562 11.0309 23.2518 10.9048 22.9343 10.9048Z" fill="white"/>
<path d="M17.5838 12.4487C16.5847 12.4487 15.6081 12.745 14.7774 13.3C13.9467 13.8551 13.2993 14.644 12.917 15.567C12.5347 16.49 12.4346 17.5056 12.6295 18.4855C12.8244 19.4653 13.3055 20.3654 14.012 21.0718C14.7184 21.7783 15.6185 22.2594 16.5983 22.4543C17.5782 22.6492 18.5938 22.5491 19.5168 22.1668C20.4398 21.7845 21.2287 21.1371 21.7838 20.3064C22.3388 19.4757 22.6351 18.4991 22.6351 17.5C22.6351 16.8367 22.5044 16.1798 22.2506 15.567C21.9967 14.9541 21.6246 14.3973 21.1556 13.9282C20.6865 13.4592 20.1297 13.0871 19.5168 12.8332C18.904 12.5794 18.2471 12.4487 17.5838 12.4487ZM17.5838 20.7439C16.9422 20.7439 16.315 20.5536 15.7816 20.1972C15.2481 19.8408 14.8324 19.3341 14.5869 18.7414C14.3413 18.1487 14.2771 17.4964 14.4023 16.8672C14.5274 16.2379 14.8364 15.6599 15.29 15.2063C15.7437 14.7526 16.3217 14.4437 16.9509 14.3185C17.5802 14.1934 18.2324 14.2576 18.8251 14.5031C19.4179 14.7486 19.9245 15.1644 20.2809 15.6978C20.6374 16.2313 20.8276 16.8585 20.8276 17.5C20.8276 18.3604 20.4859 19.1854 19.8775 19.7938C19.2692 20.4021 18.4441 20.7439 17.5838 20.7439Z" fill="white"/>
<path d="M21.5458 27.7581H13.4063C12.5932 27.7566 11.7884 27.5945 11.038 27.2811C10.2877 26.9678 9.60662 26.5093 9.03388 25.9322C8.46114 25.355 8.00801 24.6704 7.70048 23.9176C7.39295 23.1649 7.23707 22.3589 7.2418 21.5457V13.4062C7.24497 11.7722 7.89546 10.2061 9.05084 9.05073C10.2062 7.89535 11.7723 7.24486 13.4063 7.2417H21.5458C23.1798 7.24486 24.7459 7.89535 25.9013 9.05073C27.0567 10.2061 27.7072 11.7722 27.7103 13.4062V21.5457C27.7151 22.3589 27.5592 23.1649 27.2517 23.9176C26.9441 24.6704 26.491 25.355 25.9183 25.9322C25.3455 26.5093 24.6644 26.9678 23.9141 27.2811C23.1638 27.5945 22.359 27.7566 21.5458 27.7581ZM13.4063 9.16885C12.2835 9.17201 11.2075 9.61946 10.4135 10.4134C9.61956 11.2074 9.17212 12.2834 9.16896 13.4062V21.5457C9.17212 22.6686 9.61956 23.7445 10.4135 24.5385C11.2075 25.3325 12.2835 25.7799 13.4063 25.7831H21.5458C22.1059 25.7878 22.6613 25.6818 23.1802 25.4711C23.6992 25.2604 24.1713 24.9493 24.5696 24.5555C24.9678 24.1617 25.2843 23.6931 25.5008 23.1765C25.7173 22.66 25.8295 22.1058 25.8311 21.5457V13.4062C25.8295 12.8461 25.7173 12.2919 25.5008 11.7754C25.2843 11.2589 24.9678 10.7903 24.5696 10.3965C24.1713 10.0027 23.6992 9.6915 23.1802 9.48082C22.6613 9.27014 22.1059 9.16412 21.5458 9.16885H13.4063Z" fill="white"/>
<defs>
<linearGradient id="paint0_linear_315_139" x1="35.3591" y1="-0.359097" x2="-9.91108" y2="44.9111" gradientUnits="userSpaceOnUse">
<stop stop-color="#FBE18A"/>
<stop offset="0.21" stop-color="#FCBB45"/>
<stop offset="0.38" stop-color="#F75274"/>
<stop offset="0.52" stop-color="#D53692"/>
<stop offset="0.74" stop-color="#8F39CE"/>
<stop offset="1" stop-color="#5B4FE9"/>
</linearGradient>
</defs>
</svg>
