<svg width="35" height="35" viewBox="0 0 35 35" fill="none" xmlns="http://www.w3.org/2000/svg">
<path d="M35 25.843V9.15698C35 4.09972 30.9003 0 25.843 0L9.15697 0C4.09972 0 0 4.09972 0 9.15698V25.843C0 30.9003 4.09972 35 9.15697 35H25.843C30.9003 35 35 30.9003 35 25.843Z" fill="url(#paint0_linear_315_144)"/>
<path d="M10.1625 14.2442H13.55V25.1368H10.1625V14.2442ZM11.8622 8.83378C12.251 8.83618 12.6302 8.95395 12.952 9.17216C13.2737 9.39038 13.5234 9.69921 13.6694 10.0595C13.8154 10.4198 13.8512 10.8153 13.7721 11.196C13.6931 11.5766 13.5028 11.9252 13.2254 12.1976C12.948 12.4699 12.596 12.6538 12.2139 12.7259C11.8319 12.7979 11.4371 12.7549 11.0795 12.6023C10.722 12.4497 10.4178 12.1944 10.2055 11.8687C9.99323 11.543 9.88244 11.1616 9.88717 10.7729C9.89348 10.2543 10.1047 9.75935 10.4748 9.39603C10.8448 9.03271 11.3436 8.83058 11.8622 8.83378Z" fill="white"/>
<path d="M15.6805 14.2442H18.9244V15.7284C19.2513 15.1764 19.7202 14.722 20.2823 14.4125C20.8443 14.1031 21.479 13.9499 22.1203 13.9689C25.5557 13.9689 26.1781 16.2312 26.1781 19.1638V25.1487H22.8505V19.8341C22.8505 18.5773 22.8505 16.9494 21.0909 16.9494C19.3314 16.9494 19.0561 18.3259 19.0561 19.7503V25.1368H15.6805V14.2442Z" fill="white"/>
<defs>
<linearGradient id="paint0_linear_315_144" x1="32.3068" y1="2.69323" x2="2.69323" y2="32.3187" gradientUnits="userSpaceOnUse">
<stop stop-color="#007AB5"/>
<stop offset="1" stop-color="#0046E5"/>
</linearGradient>
</defs>
</svg>
