<svg width="35" height="35" viewBox="0 0 35 35" fill="none" xmlns="http://www.w3.org/2000/svg">
<path d="M35 25.843V9.15698C35 4.09972 30.9003 0 25.843 0L9.15697 0C4.09972 0 0 4.09972 0 9.15698V25.843C0 30.9003 4.09972 35 9.15697 35H25.843C30.9003 35 35 30.9003 35 25.843Z" fill="url(#paint0_linear_315_148)"/>
<path d="M27.1717 11.5031C26.5554 11.7681 25.9078 11.9532 25.2445 12.0538C25.5558 12.0538 26.0106 11.4433 26.1902 11.2159C26.4799 10.8617 26.6993 10.4554 26.8365 10.0189C26.8365 10.0189 26.8365 9.94705 26.8365 9.92311C26.8234 9.91133 26.8063 9.90482 26.7887 9.90482C26.771 9.90482 26.754 9.91133 26.7408 9.92311C26.0126 10.3057 25.241 10.5991 24.4426 10.7969C24.4189 10.8106 24.3921 10.8178 24.3648 10.8178C24.3374 10.8178 24.3106 10.8106 24.287 10.7969L24.0954 10.5934C23.7614 10.3105 23.386 10.0804 22.9822 9.91114C22.4439 9.67289 21.859 9.55836 21.2705 9.57598C20.7062 9.62268 20.1569 9.78138 19.6546 10.0428C19.152 10.3007 18.7079 10.6593 18.3499 11.0962C17.9857 11.5555 17.7208 12.0853 17.5718 12.6522C17.4641 13.1976 17.4641 13.7588 17.5718 14.3041C17.5718 14.3879 17.5718 14.3999 17.488 14.3879C14.451 14.1016 11.6299 12.6932 9.57594 10.4378C9.49215 10.3301 9.44427 10.3301 9.36048 10.4378C8.95205 11.1907 8.79781 12.0555 8.92076 12.9032C9.04371 13.7509 9.43726 14.5361 10.0428 15.142C10.1984 15.2856 10.354 15.4412 10.5216 15.5729C9.99513 15.5312 9.48235 15.3847 9.01336 15.142C8.9176 15.0821 8.86972 15.142 8.85775 15.2258C8.84682 15.3772 8.84682 15.5292 8.85775 15.6806C8.94855 16.3872 9.22596 17.0569 9.66145 17.6207C10.0969 18.1846 10.6748 18.6222 11.3355 18.8886C11.495 18.9638 11.6642 19.0161 11.8383 19.0442C11.3474 19.1323 10.8448 19.1323 10.354 19.0442C10.2463 19.0442 10.1984 19.0442 10.2463 19.1758C10.5016 19.8421 10.9223 20.4324 11.4689 20.891C12.0155 21.3497 12.6699 21.6615 13.3704 21.7973C13.514 21.7973 13.6577 21.7973 13.8013 21.7973C13.1973 22.3675 12.461 22.7789 11.6587 22.9942C10.6193 23.3617 9.51283 23.5006 8.41486 23.4012C8.24728 23.4012 8.21137 23.4012 8.16349 23.4012C8.11561 23.4012 8.16349 23.473 8.16349 23.5209C8.16349 23.5688 8.60638 23.7962 8.83381 23.9279C9.52311 24.2918 10.2494 24.5807 11.0004 24.7897C12.9357 25.3735 14.9904 25.4386 16.9587 24.9785C18.9271 24.5185 20.7401 23.5494 22.2162 22.1683C23.2784 21.0163 24.0998 19.6637 24.6321 18.1899C25.1645 16.7161 25.3971 15.1508 25.3164 13.5859C25.3164 13.4662 25.46 13.3944 25.5558 13.3226C26.1389 12.8751 26.6514 12.3425 27.0759 11.7425C27.1418 11.6563 27.1795 11.5518 27.1837 11.4433C27.1837 11.4433 27.2435 11.4672 27.1717 11.5031Z" fill="white"/>
<defs>
<linearGradient id="paint0_linear_315_148" x1="32.3068" y1="2.69323" x2="2.68126" y2="32.3187" gradientUnits="userSpaceOnUse">
<stop stop-color="#33CCFF"/>
<stop offset="1" stop-color="#337FFF"/>
</linearGradient>
</defs>
</svg>
