<svg width="22" height="22" viewBox="0 0 22 22" fill="none" xmlns="http://www.w3.org/2000/svg">
<mask id="path-1-inside-1_408_27" fill="white">
<path fill-rule="evenodd" clip-rule="evenodd" d="M11 22C17.0751 22 22 17.0751 22 11C22 4.92487 17.0751 0 11 0C4.92487 0 0 4.92487 0 11C0 17.0751 4.92487 22 11 22ZM11 17C14.3137 17 17 14.3137 17 11C17 7.68629 14.3137 5 11 5C7.68629 5 5 7.68629 5 11C5 14.3137 7.68629 17 11 17Z"/>
</mask>
<path fill-rule="evenodd" clip-rule="evenodd" d="M11 22C17.0751 22 22 17.0751 22 11C22 4.92487 17.0751 0 11 0C4.92487 0 0 4.92487 0 11C0 17.0751 4.92487 22 11 22ZM11 17C14.3137 17 17 14.3137 17 11C17 7.68629 14.3137 5 11 5C7.68629 5 5 7.68629 5 11C5 14.3137 7.68629 17 11 17Z" fill="white"/>
<path d="M21 11C21 16.5228 16.5228 21 11 21V23C17.6274 23 23 17.6274 23 11H21ZM11 1C16.5228 1 21 5.47715 21 11H23C23 4.37258 17.6274 -1 11 -1V1ZM1 11C1 5.47715 5.47715 1 11 1V-1C4.37258 -1 -1 4.37258 -1 11H1ZM11 21C5.47715 21 1 16.5228 1 11H-1C-1 17.6274 4.37258 23 11 23V21ZM16 11C16 13.7614 13.7614 16 11 16V18C14.866 18 18 14.866 18 11H16ZM11 6C13.7614 6 16 8.23858 16 11H18C18 7.13401 14.866 4 11 4V6ZM6 11C6 8.23858 8.23858 6 11 6V4C7.13401 4 4 7.13401 4 11H6ZM11 16C8.23858 16 6 13.7614 6 11H4C4 14.866 7.13401 18 11 18V16Z" fill="#444444" mask="url(#path-1-inside-1_408_27)"/>
</svg>
